# xmcd
#
# Track frame offsets: 
#        150
#        14663
#        33553
#        47582
#        64598
#        79420
#        102425
#        115803
#        129110
#        150478
#        167622
#        180490
#
# Disc length: 2558 seconds
#
# Revision: 0
# Processed by: cddbd v1.5.2PL0 Copyright (c) Steve Scherf et al.
# Submitted via: ExactAudioCopyFreeDBPlugin 1.0
#
DISCID=9109fc0c
DTITLE=John Denver - Country Roads
DYEAR=1994
DGENRE=Country
TTITLE0=Take Me Home, Country Roads
TTITLE1=Rocky Mountain High
TTITLE2=Annie's Song
TTITLE3=Country Girl In Paris
TTITLE4=For You
TTITLE5=Sunshine On My Shoulders
TTITLE6=Eagle And The Hawk
TTITLE7=Whispering Jesse
TTITLE8=Eagles and Horses
TTITLE9=Calypso
TTITLE10=The Flower That Shattered The Stone
TTITLE11=In A Far Away Land (Chinese Traditional)
EXTD=
EXTT0=
EXTT1=
EXTT2=
EXTT3=
EXTT4=
EXTT5=
EXTT6=
EXTT7=
EXTT8=
EXTT9=
EXTT10=
EXTT11=
PLAYORDER=
